<svg height="480pt" viewBox="0 -8 480.00121 480" width="480pt" xmlns="http://www.w3.org/2000/svg"><path d="m176 440c98.695312 0 176-39.09375 176-89v-54c0-37.390625-43.402344-68.710938-106.679688-82.066406 62.675782-17.160156 106.679688-56.832032 106.679688-102.933594 0-61.757812-78.953125-112-176-112s-176 50.242188-176 112c0 46.101562 44.003906 85.773438 106.679688 102.933594-63.277344 13.355468-106.679688 44.675781-106.679688 82.066406v54c0 49.90625 77.304688 89 176 89zm119.023438-160c0 30.351562-54.507813 56-119.023438 56s-119.023438-25.648438-119.023438-56 54.507813-56 119.023438-56 119.023438 25.648438 119.023438 56zm-279.023438-168c0-52.9375 71.773438-96 160-96s160 43.0625 160 96-71.773438 96-160 96-160-43.0625-160-96zm35.257812 139.972656c-6.480468 7.921875-10.101562 17.796875-10.28125 28.027344 0 40.375 59.3125 72 135.023438 72s135.023438-31.625 135.023438-72c-.179688-10.230469-3.800782-20.105469-10.28125-28.027344 21.914062 12.507813 35.257812 28.195313 35.257812 45.027344 0 39.570312-73.273438 73-160 73s-160-33.429688-160-73c0-16.832031 13.34375-32.519531 35.257812-45.027344zm-35.257812 82.523438c27.515625 30.640625 87.984375 51.503906 160 51.503906s132.484375-20.863281 160-51.503906v16.503906c0 39.570312-73.273438 73-160 73s-160-33.429688-160-73zm0 0"/><path d="m294.566406 67.652344c-1.09375-1.207032-2.375-2.226563-3.792968-3.023438-25.210938-18.945312-65.285157-32.628906-114.773438-32.628906-86.140625 0-144 41.367188-144 80s57.859375 80 144 80 144-41.367188 144-80c0-15.277344-9.164062-30.941406-25.433594-44.347656zm-118.566406 108.347656c-79.304688 0-128-37.273438-128-64s48.695312-64 128-64c22.097656-.195312 44.09375 3.039062 65.199219 9.59375l-30.199219 24.15625c-3.441406 2.765625-3.996094 7.792969-1.238281 11.242188 2.757812 3.445312 7.785156 4.011718 11.238281 1.257812l37.449219-29.960938c5.515625 2.496094 10.851562 5.375 15.964843 8.613282l-39.539062 32.949218c-3.382812 2.835938-3.835938 7.871094-1.007812 11.261719 2.824218 3.390625 7.859374 3.851563 11.257812 1.035157l42.398438-35.332032c9.246093 7.070313 15.199218 17.613282 16.476562 29.183594 0 26.726562-48.695312 64-128 64zm0 0"/><path d="m96 288h16c4.417969 0 8-3.582031 8-8s-3.582031-8-8-8h-16c-4.417969 0-8 3.582031-8 8s3.582031 8 8 8zm0 0"/><path d="m136 304h16c4.417969 0 8-3.582031 8-8s-3.582031-8-8-8h-16c-4.417969 0-8 3.582031-8 8s3.582031 8 8 8zm0 0"/><path d="m475.59375 160.851562c-39.890625-20.609374-87.296875-20.609374-127.1875 0-3.296875 1.65625-5.03125 5.351563-4.203125 8.945313l24 104c.835937 3.632813 4.070313 6.203125 7.796875 6.203125h.339844l7.667968 176.34375c.1875 4.28125 3.707032 7.65625 7.992188 7.65625h40c4.285156 0 7.804688-3.375 7.992188-7.65625l7.667968-176.34375h.339844c3.726562 0 6.960938-2.570312 7.796875-6.203125l24-104c.828125-3.59375-.90625-7.289063-4.203125-8.945313zm-51.25 287.148438h-24.6875l-7.304688-168h39.296876zm17.289062-184h-59.265624l-21.125-91.53125c5.257812-2.300781 10.660156-4.246094 16.175781-5.832031l6.824219 27.300781c.691406 2.773438 2.808593 4.96875 5.554687 5.757812 2.75.789063 5.710937.050782 7.765625-1.9375 2.054688-1.988281 2.890625-4.921874 2.195312-7.695312l-6.734374-26.941406c12.570312-2.007813 25.382812-2.007813 37.953124 0l-6.734374 26.941406c-.695313 2.773438.140624 5.707031 2.195312 7.695312 2.054688 1.988282 5.015625 2.726563 7.765625 1.9375 2.746094-.789062 4.863281-2.984374 5.554687-5.757812l6.824219-27.300781c5.515625 1.585937 10.917969 3.53125 16.175781 5.832031zm0 0"/></svg>