<svg height="477pt" viewBox="-71 0 477 477.945" width="477pt" xmlns="http://www.w3.org/2000/svg"><path d="m312.730469 81.898438c-47.066407-78.859376-148.738281-105.308594-228.265625-59.386719-79.53125 45.925781-107.449219 147.199219-62.679688 227.386719 22.179688 38.664062 58.90625 66.84375 101.992188 78.261718 6.410156 1.707032 12.917968 3.042969 19.480468 4v66.527344c-49.777343 3.027344-96 15.570312-96 39.257812 0 27.488282 62.199219 40 120 40 57.800782 0 120-12.511718 120-40 0-23.6875-46.222656-36.230468-96-39.257812v-66.503906c55.167969-7.964844 102.789063-42.777344 127.128907-92.921875 24.335937-50.144531 22.21875-109.09375-5.65625-157.363281zm-41.472657 356c0 7.199218-35.382812 24-104 24-68.617187 0-104-16.800782-104-24 0-7.203126 35.382813-24 104-24 68.617188 0 104 16.796874 104 24zm-96-39.890626c-2.671874-.054687-5.34375-.109374-8-.109374s-5.328124.054687-8 .109374v-64.335937c2.761719.136719 5.519532.273437 8.273438.273437 2.582031 0 5.152344-.136718 7.726562-.257812zm138.800782-192.796874c-20.417969 76.011718-95.519532 123.835937-173.035156 110.195312-77.515626-13.644531-131.769532-84.234375-125.011719-162.652344 6.761719-78.417968 72.300781-138.683594 151.007812-138.855468 13.363281.007812 26.667969 1.769531 39.574219 5.238281 81.046875 21.734375 129.152344 105.035156 107.464844 186.097656zm0 0"/><path d="m167.257812 21.898438c-79.527343 0-144 64.46875-144 144 0 79.527343 64.472657 144 144 144 79.53125 0 144-64.472657 144-144-.09375-79.492188-64.507812-143.910157-144-144zm0 272c-70.691406 0-128-57.308594-128-128 0-70.695313 57.308594-128 128-128 70.691407 0 128 57.304687 128 128-.082031 70.65625-57.34375 127.914062-128 128zm0 0"/><path d="m246.402344 110.96875-166.289063 96c-2.496093 1.417969-4.039062 4.066406-4.046875 6.9375-.003906 2.871094 1.527344 5.523438 4.015625 6.953125 2.492188 1.429687 5.554688 1.417969 8.03125-.035156l166.289063-96c3.792968-2.222657 5.082031-7.09375 2.882812-10.902344-2.199218-3.808594-7.058594-5.125-10.882812-2.953125zm0 0"/><path d="m84.90625 167.257812 124.703125-72c3.792969-2.226562 5.082031-7.09375 2.882813-10.902343-2.199219-3.808594-7.058594-5.128907-10.882813-2.953125l-124.703125 72c-2.496094 1.417968-4.039062 4.066406-4.046875 6.9375-.003906 2.867187 1.527344 5.523437 4.015625 6.953125 2.488281 1.429687 5.554688 1.414062 8.03125-.035157zm0 0"/><path d="m249.609375 164.535156-124.703125 72c-3.828125 2.210938-5.140625 7.105469-2.933594 10.933594 2.210938 3.828125 7.105469 5.140625 10.933594 2.933594l124.703125-72c3.828125-2.210938 5.140625-7.105469 2.933594-10.933594-2.210938-3.828125-7.105469-5.140625-10.933594-2.933594zm0 0"/></svg>