<svg height="479pt" viewBox="-16 0 479 479.03679" width="479pt" xmlns="http://www.w3.org/2000/svg"><path d="m8.019531 439.925781h280c4.417969 0 8-3.582031 8-8v-384c0-4.417969-3.582031-8-8-8h-280c-4.417969 0-7.9999998 3.582031-7.9999998 8v384c0 4.417969 3.5820308 8 7.9999998 8zm8-384h264v176h-264zm0 192h264v176h-264zm0 0"/><path d="m256.019531 263.925781h-216c-4.417969 0-8 3.582031-8 8v128c0 4.417969 3.582031 8 8 8h216c4.417969 0 8-3.582031 8-8v-128c0-4.417969-3.582031-8-8-8zm-152 128h-56v-48h56zm0-64h-56v-48h56zm72 64h-56v-48h56zm0-64h-56v-48h56zm72 64h-56v-48h56zm0-64h-56v-48h56zm0 0"/><path d="m148.019531 71.925781c-64.035156.074219-115.925781 51.964844-116 116v20c0 4.417969 3.582031 8 8 8h216c4.417969 0 8-3.582031 8-8v-20c-.074219-64.035156-51.96875-115.925781-116-116zm100 128h-200v-12c0-55.230469 44.769531-100 100-100 55.226563 0 100 44.769531 100 100zm0 0"/><path d="m163.171875 112.574219c-4.0625-1.742188-8.765625.136719-10.503906 4.199219l-24 56c-1.175781 2.632812-.839844 5.699218.875 8.015624 1.71875 2.320313 4.550781 3.535157 7.414062 3.179688s5.3125-2.222656 6.414063-4.890625l24-56c1.738281-4.0625-.140625-8.765625-4.199219-10.503906zm0 0"/><path d="m115.59375 120.765625c-3.953125-1.976563-8.761719-.371094-10.734375 3.582031l-16 32c-1.976563 3.957032-.371094 8.761719 3.582031 10.738282 3.957032 1.972656 8.761719.371093 10.738282-3.585938l16-32c1.976562-3.953125.371093-8.761719-3.585938-10.734375zm0 0"/><path d="m202.996094 128.492188c-4.105469-1.640626-8.761719.355468-10.402344 4.457031l-16 40c-1.640625 4.101562.355469 8.757812 4.457031 10.398437.945313.378906 1.949219.574219 2.96875.578125 3.269531 0 6.214844-1.988281 7.429688-5.023437l16-40c.792969-1.972656.765625-4.175782-.070313-6.128906-.835937-1.953126-2.414062-3.492188-4.382812-4.28125zm0 0"/><path d="m352.019531 447.035156c0 17.675782 14.324219 32 32 32 17.671875 0 32-14.324218 32-32v-254.6875l7.878907-70.941406 23.847656-89.753906c.761718-2.867188-.128906-5.925782-2.3125-7.9375-.582032-.542969-58.878906-52.902344-122.511719-.277344-2.40625 1.988281-3.433594 5.199219-2.632813 8.214844l23.847657 89.753906 7.882812 70.941406zm48 0c0 8.839844-7.164062 16-16 16-8.835937 0-16-7.160156-16-16v-215.109375h32zm0-231.109375h-32v-16h32zm.800781-32h-33.601562l-6.222656-56h46.125zm-63.722656-151.304687c27.402344-22.019532 66.417969-22.058594 93.863282-.097656l-21.09375 79.402343h-8.089844l6.082031-30.402343c.671875-2.84375-.261719-5.828126-2.4375-7.785157-2.171875-1.953125-5.242187-2.566406-8-1.601562-2.757813.96875-4.769531 3.367187-5.242187 6.253906l-6.722657 33.535156h-2.878906l-6.71875-33.601562c-.992187-4.195313-5.128906-6.851563-9.355469-6.007813-4.226562.847656-7.023437 4.890625-6.324218 9.144532l6.078124 30.398437h-8.085937zm0 0"/></svg>